<svg xmlns="http://www.w3.org/2000/svg" viewBox="0 0 68.799 16.935" height="64" width="260"><g font-family="Rounded-X M+ 2c" word-spacing="0"><path d="M16.79 3.248c-.191.007-.374.06-.548.159a1.42 1.42 0 0 0-.546.546 11.126 11.126 0 0 1-1.717 2.275.904.904 0 0 0-.279.661c0 .256.093.472.279.65l.255.233a.31.31 0 0 1 .104.22v3.459c0 .363.004.642.012.835.007.194.039.383.093.569.062.186.123.314.185.383.07.07.198.135.384.197.185.07.371.112.557.128a36.528 36.528 0 0 0 2.809.116c.72 0 1.485-.019 2.298-.058 1.192-.046 1.973-.174 2.344-.383.372-.2.615-.673.732-1.416a.815.815 0 0 0-.175-.662.894.894 0 0 0-.615-.336.814.814 0 0 0-.638.185 1.51 1.51 0 0 0-.441.593.628.628 0 0 1-.441.383c-.201.046-.623.085-1.265.116-.774.039-1.366.058-1.776.058-.565 0-1.13-.02-1.695-.058-.286-.016-.46-.059-.522-.128-.054-.07-.081-.251-.081-.546v-1.23c0-.093.042-.14.127-.14h5.304c.031 0 .047.016.047.047 0 .093.031.174.093.244.062.062.14.093.232.093h.557a.84.84 0 0 0 .616-.255.834.834 0 0 0 .266-.627V6.982a.898.898 0 0 0-.29-.673.912.912 0 0 0-.684-.29h-1.59c-.024 0-.04-.009-.047-.024-.008-.023-.004-.042.011-.058l.244-.244c.302-.301.453-.688.453-1.16a.648.648 0 0 0-.198-.476.649.649 0 0 0-.475-.197h-3.007c-.039 0-.05-.02-.034-.058a.326.326 0 0 0-.035-.325.362.362 0 0 0-.279-.175l-.43-.046a1.255 1.255 0 0 0-.194-.008zm8.903.136a.774.774 0 0 0-.569.232.774.774 0 0 0-.232.569v.893c0 .085-.042.128-.127.128h-.337a.715.715 0 0 0-.522.22.714.714 0 0 0-.221.523c0 .201.074.375.22.522.148.147.322.22.523.22h.162c.078 0 .109.036.093.105a9.285 9.285 0 0 1-.812 2.368c-.286.58-.325 1.153-.116 1.718.062.163.19.251.383.267.2.015.336-.058.406-.22.124-.264.228-.535.314-.813.015-.008.026-.008.034 0v2.867c0 .224.077.414.232.569a.774.774 0 0 0 .57.232.773.773 0 0 0 .568-.232.773.773 0 0 0 .232-.569V9.245c0-.015.004-.023.012-.023.015 0 .027.004.034.012.016.03.035.077.059.14a.915.915 0 0 1 .046.127c.1.232.271.386.51.464.24.077.465.047.674-.093l.07-.035a.058.058 0 0 1 .07 0c.022.008.034.027.034.058v2.949c0 .24.085.444.255.615.17.178.38.267.627.267h.348a.487.487 0 0 0 .372-.162.487.487 0 0 0 .162-.372c0-.054.024-.081.07-.081h2.182c.046 0 .07.027.07.08 0 .148.05.272.15.373a.524.524 0 0 0 .384.162h.348c.248 0 .456-.09.626-.267a.838.838 0 0 0 .256-.615V6.552c0-.046.027-.069.081-.069a.544.544 0 0 0 .256-.062.713.713 0 0 0 .513.213h.186c.03 0 .058.012.082.035.023.015.03.039.023.07-.17.812-.45 1.609-.836 2.39-.287.573-.325 1.142-.116 1.707.062.162.19.251.383.267.193.008.325-.066.395-.22.03-.063.069-.16.115-.291.047-.132.074-.213.082-.244.007-.008.015-.011.023-.011.015 0 .023.008.023.023v2.647a.74.74 0 0 0 .22.545c.148.155.33.232.547.232a.722.722 0 0 0 .545-.232.722.722 0 0 0 .232-.545V9.5c0-.016.004-.023.012-.023.015 0 .027.004.034.012.062.154.155.394.279.719a.65.65 0 0 1 .058.244v2.403c0 .232.081.429.244.591.162.163.36.244.592.244.232 0 .43-.081.592-.244a.787.787 0 0 0 .255-.591V11.01c0-.023.011-.039.035-.046.023-.008.043-.004.058.01l.093.083a.289.289 0 0 1 .093.208v1.381c0 .178.061.33.185.453a.656.656 0 0 0 .465.186h.348a.253.253 0 0 0 .197-.093.265.265 0 0 0 .093-.209c0-.023.016-.035.047-.035h1.172c.054 0 .08.028.08.082a.661.661 0 0 0 .21.44c.124.124.27.19.441.198.178.008.38.011.604.011.317 0 .557-.015.72-.046.162-.023.309-.065.44-.127a.498.498 0 0 0 .279-.348c.054-.17.093-.368.116-.593.023-.224.035-.541.035-.951V9.409a.9.9 0 0 0-.29-.674.912.912 0 0 0-.685-.29h-1.614c0-.008.004-.015.012-.023.17-.039.286-.109.348-.21.062-.1.097-.255.105-.463 0-.031.011-.055.034-.07a.099.099 0 0 1 .093 0l.244.104c.255.124.527.16.813.105.294-.062.522-.205.685-.43a4.34 4.34 0 0 1 .104-.162.97.97 0 0 1 .093-.14c.209-.332.313-.708.313-1.125a.552.552 0 0 0-.185-.418.57.57 0 0 0-.418-.174h-.883c-.007 0-.015-.004-.023-.012-.015-.03-.011-.05.012-.058.132-.07.32-.174.568-.313.341-.194.511-.5.511-.917a.552.552 0 0 0-.185-.418.57.57 0 0 0-.418-.174h-5.456a.61.61 0 0 0-.429.174.57.57 0 0 0-.174.418.57.57 0 0 0 .174.418.61.61 0 0 0 .43.174h.464c.015 0 .023.008.023.023 0 .008-.004.016-.012.023l-.023.012a.32.32 0 0 0-.163.313.33.33 0 0 0 .198.29c.008.008.012.02.012.035 0 .008-.008.012-.024.012H37.42c-.023 0-.034-.012-.034-.035a.22.22 0 0 0-.081-.174.22.22 0 0 0-.175-.082h-.43c-.061 0-.092-.03-.092-.093v-.893a.723.723 0 0 0-.232-.546.722.722 0 0 0-.545-.232.723.723 0 0 0-.546.232.742.742 0 0 0-.22.546v.859c0 .085-.043.127-.129.127h-.232a.706.706 0 0 0-.327.08c-.015-.019-.03-.038-.047-.056a.52.52 0 0 0-.395-.174c-.054 0-.081-.024-.081-.07v-.604a.838.838 0 0 0-.256-.615.833.833 0 0 0-.626-.267.834.834 0 0 0-.627.267.838.838 0 0 0-.255.615v.546c0 .085-.043.128-.128.128h-2.066c-.085 0-.128-.043-.128-.128v-.546a.838.838 0 0 0-.255-.615.834.834 0 0 0-.627-.267.834.834 0 0 0-.627.267.838.838 0 0 0-.255.615v.627c0 .031-.016.047-.047.047-.1 0-.185.034-.255.104a.347.347 0 0 0-.104.255v.766c0 .1.034.186.104.256.07.07.155.104.255.104.031 0 .047.016.047.046v2.694c-.016.023-.031.03-.047.023-.278-.573-.688-1.4-1.23-2.484a.05.05 0 0 1 0-.046c.016-.016.031-.024.047-.024.17 0 .313-.058.429-.174a.584.584 0 0 0 .174-.43V5.95a.714.714 0 0 0-.22-.523.714.714 0 0 0-.523-.22H26.6c-.07 0-.105-.035-.105-.105v-.917a.774.774 0 0 0-.232-.569.773.773 0 0 0-.569-.232zm32.901.065a.84.84 0 0 0-.148.016c-1.06.217-2.085.364-3.076.441a.668.668 0 0 0-.476.244.65.65 0 0 0-.15.487.72.72 0 0 0 .255.488.764.764 0 0 0 .522.174c.147-.008.368-.027.662-.058a.08.08 0 0 1 .08.023.11.11 0 0 1 .047.093V6.4c0 .093-.042.14-.127.14h-.847a.715.715 0 0 0-.523.22.677.677 0 0 0-.22.511c0 .201.073.376.22.523.147.147.321.22.523.22h.591c.086 0 .113.042.082.127a8.99 8.99 0 0 1-1.15 2.275 1.352 1.352 0 0 0-.08 1.463.55.55 0 0 0 .475.279.523.523 0 0 0 .476-.267c.201-.348.38-.732.534-1.15.008-.007.015-.01.023-.01.016 0 .023.006.023.022v2.194c0 .232.082.43.244.592.163.163.36.243.592.243.232 0 .426-.08.58-.243a.807.807 0 0 0 .244-.592V9.802c0-.015.008-.023.024-.023.015-.008.027-.004.034.011.047.109.124.275.232.5.109.216.187.379.233.487.1.224.267.364.499.418.24.054.456.007.65-.14l.209-.162c.062-.046.093-.03.093.047v1.741c0 .24.081.44.244.603.17.17.375.256.615.256h.325c.147 0 .27-.055.37-.163a.488.488 0 0 0 .164-.371c0-.047.023-.07.07-.07h1.461c.047 0 .07.023.07.07 0 .147.05.27.151.371a.524.524 0 0 0 .383.163h.348a.82.82 0 0 0 .615-.267.82.82 0 0 0 .268-.615V4.904c0-.27-.097-.5-.29-.685a.918.918 0 0 0-.674-.278H60.92a.95.95 0 0 0-.697.29.918.918 0 0 0-.278.673v5.537c-.016.03-.035.034-.058.011a251.11 251.11 0 0 0-1.44-2.333.057.057 0 0 1 0-.07.078.078 0 0 1 .07-.034h.337a.713.713 0 0 0 .522-.22.714.714 0 0 0 .22-.523.677.677 0 0 0-.22-.51.713.713 0 0 0-.522-.221h-.743a.145.145 0 0 1-.105-.047.155.155 0 0 1-.034-.093V5.136c0-.077.042-.123.127-.139.271-.054.553-.112.847-.174a.532.532 0 0 0 .395-.302.674.674 0 0 0 .035-.534.754.754 0 0 0-.371-.43.761.761 0 0 0-.41-.108zM6.887 3.46a.78.78 0 0 0-.143.016c-.928.2-1.869.344-2.82.43a.658.658 0 0 0-.465.243.649.649 0 0 0-.15.488.72.72 0 0 0 .255.487.75.75 0 0 0 .51.163c.039 0 .093-.004.163-.012.077-.008.135-.012.174-.012a.08.08 0 0 1 .081.024.11.11 0 0 1 .047.092v.778c0 .085-.043.128-.128.128H3.9a.734.734 0 0 0-.731.743.735.735 0 0 0 .73.742h.488c.031 0 .054.012.07.035a.08.08 0 0 1 .023.081 9.492 9.492 0 0 1-1.091 2.24c-.318.504-.345.987-.082 1.451a.456.456 0 0 0 .43.267c.201 0 .344-.085.43-.255.123-.24.235-.48.336-.72.007-.007.015-.011.023-.011s.012.008.012.023v2.078c0 .224.08.418.243.58a.793.793 0 0 0 .58.244.756.756 0 0 0 .57-.244.792.792 0 0 0 .243-.58v-2.82c0-.016.008-.024.023-.024.016-.008.028-.004.036.012l.127.29.14.279c.069.147.185.243.348.29a.5.5 0 0 0 .44-.093.702.702 0 0 0 .279-.43.721.721 0 0 0-.081-.522c-.426-.75-.824-1.44-1.196-2.066a.058.058 0 0 1 0-.07c.016-.023.04-.035.07-.035h.894c.03 0 .054.012.07.035.015.023.019.05.01.082a.178.178 0 0 1-.022.069.179.179 0 0 0-.024.07.838.838 0 0 0 .441 1.033.668.668 0 0 0 .558.011.661.661 0 0 0 .394-.406c.263-.735.492-1.582.685-2.542a.77.77 0 0 0-.116-.58.748.748 0 0 0-.476-.36.656.656 0 0 0-.557.093.68.68 0 0 0-.313.464 18.911 18.911 0 0 1-.488 1.869c-.008.008-.015.012-.023.012s-.012-.008-.012-.024v-.336c0-.271-.097-.5-.29-.685a.899.899 0 0 0-.673-.29h-.116c-.085 0-.128-.043-.128-.128v-.987c0-.085.04-.135.116-.15.496-.093.79-.151.883-.175a.636.636 0 0 0 .43-.325.645.645 0 0 0 .046-.534.71.71 0 0 0-.36-.417.749.749 0 0 0-.403-.11zm3.606.039a.853.853 0 0 0-.627.255.852.852 0 0 0-.255.627v1.544c0 1.377-.159 2.51-.476 3.4a5.38 5.38 0 0 1-1.474 2.241 1.202 1.202 0 0 0-.372.65.989.989 0 0 0 .117.72.808.808 0 0 0 .557.394.702.702 0 0 0 .638-.186c.774-.742 1.408-1.721 1.904-2.936.007-.016.023-.023.046-.023s.039.008.047.023c.464 1.215 1.052 2.19 1.764 2.925.178.17.387.232.627.186a.737.737 0 0 0 .545-.383.989.989 0 0 0 .116-.72 1.199 1.199 0 0 0-.371-.639c-.805-.735-1.347-1.69-1.625-2.866-.008-.024-.004-.043.011-.059a.077.077 0 0 1 .07-.011l.128.058c.24.116.48.128.72.035a.835.835 0 0 0 .498-.523c.256-.72.473-1.47.65-2.251a.726.726 0 0 0-.104-.604.828.828 0 0 0-.5-.383.729.729 0 0 0-.59.093.711.711 0 0 0-.35.487 21.03 21.03 0 0 1-.65 2.229c-.007.015-.015.019-.023.011-.023 0-.034-.011-.034-.034-.07-.55-.105-1.16-.105-1.834V4.382a.852.852 0 0 0-.255-.627.852.852 0 0 0-.627-.255zm35.728.15a.936.936 0 0 0-.685.29.93.93 0 0 0-.279.686v8.136c0 .248.09.46.267.639.178.178.391.267.639.267h.36a.524.524 0 0 0 .382-.163.486.486 0 0 0 .163-.371c0-.054.024-.082.07-.082h4.875c.046 0 .07.028.07.082 0 .147.054.27.162.371a.524.524 0 0 0 .383.163h.36c.248 0 .46-.09.638-.267a.871.871 0 0 0 .267-.639V4.626c0-.271-.097-.5-.29-.685a.898.898 0 0 0-.673-.29zm-6.132 1.08h1.52c.008 0 .02.004.036.012.015.03.011.05-.012.058-.14.077-.383.197-.731.36a.248.248 0 0 1-.221-.012 11.7 11.7 0 0 0-.325-.186l-.29-.162c-.016-.008-.02-.02-.011-.035.007-.023.019-.035.034-.035zm7.107.453h4.759c.085 0 .127.042.127.127v2.101c0 .085-.042.128-.127.128h-4.76c-.084 0-.127-.043-.127-.128v-2.1c0-.086.043-.128.128-.128zm-30.083.023h2.1c.024 0 .04.011.047.035.008.023.004.043-.012.058-.155.14-.402.348-.743.626a.372.372 0 0 1-.232.093h-1.73c-.023 0-.042-.01-.057-.034a.058.058 0 0 1 0-.07c.2-.263.344-.46.43-.592.053-.077.12-.116.197-.116zm44.676.255h1.347c.085 0 .127.043.127.128v5.734c0 .085-.042.128-.127.128h-1.347c-.085 0-.127-.043-.127-.128V5.59c0-.085.042-.128.127-.128zM29.895 6.483h2.066c.085 0 .128.043.128.128v1.555c0 .093-.043.14-.128.14h-2.066c-.085 0-.128-.047-.128-.14V6.61c0-.085.043-.128.128-.128zm6.91.151h1.787c.015 0 .023.007.023.023.008.008.008.015 0 .023-.1.039-.368.132-.8.279a.523.523 0 0 0-.337.313.494.494 0 0 0 .034.453.82.82 0 0 0 .43.348.74.74 0 0 0 .546-.023c.046-.023.111-.058.196-.105l.21-.104c.03-.016.058-.016.08 0 .032.015.047.039.047.07l.035.406c.008.03 0 .062-.023.093a.125.125 0 0 1-.093.034h-1.254a.194.194 0 0 1-.185-.115 36.535 36.535 0 0 0-.395-.79l-.383-.8a.077.077 0 0 1 .012-.07c.015-.024.038-.035.07-.035zm5.594 0h.418c.03 0 .05.011.058.035a.058.058 0 0 1 0 .07 4.18 4.18 0 0 1-.51.568c-.016.015-.04.02-.07.012-.024-.016-.035-.035-.035-.058v-.5c0-.084.046-.127.139-.127zm-1.938.229a.071.071 0 0 1 .034.003c.024.008.035.027.035.058v.267c0 .124-.015.198-.046.22-.023.024-.116.035-.279.035h-.476c-.038-.015-.042-.038-.011-.07.263-.162.499-.328.708-.499a.088.088 0 0 1 .035-.014zm-24.23.548h1.705c.085 0 .128.043.128.128v1.092c0 .085-.043.127-.128.127H16.23c-.085 0-.127-.042-.127-.127V7.539c0-.085.042-.128.127-.128zm3.679 0h1.543c.085 0 .128.043.128.128v1.092c0 .085-.043.127-.128.127H19.91c-.086 0-.128-.042-.128-.127V7.539c0-.085.042-.128.128-.128zm27.286 1.614h4.759c.085 0 .127.042.127.127v2.299c0 .085-.042.127-.127.127h-4.76c-.084 0-.127-.042-.127-.127V9.152c0-.085.043-.127.128-.127zm-8.395.58h.278c.039 0 .066.016.081.047.024.03.031.062.024.093-.047.147-.182.31-.407.487a.077.077 0 0 1-.07.011c-.023-.008-.034-.026-.034-.057v-.453c0-.085.043-.128.128-.128zm1.822 0h.012c.085 0 .128.043.128.128v.464c0 .31.058.534.174.673.038.054.026.081-.035.081h-.906c-.023 0-.039-.01-.046-.034-.008-.023-.004-.043.011-.058.325-.34.5-.712.523-1.114 0-.031.011-.062.035-.093a.144.144 0 0 1 .104-.047zm1.567 0h.325c.085 0 .128.043.128.128v.197c0 .085-.043.128-.128.128h-.14c-.162 0-.258-.011-.29-.035-.023-.023-.034-.1-.034-.232v-.058c0-.085.046-.128.139-.128zm-12.295.128h2.066c.085 0 .128.042.128.128v1.648c0 .085-.043.127-.128.127h-2.066c-.085 0-.128-.042-.128-.127V9.86c0-.086.043-.128.128-.128zm12.597 1.346h.023c.085 0 .128.043.128.128v.697c0 .147-.008.24-.024.278-.015.039-.058.062-.127.07-.031.008-.062 0-.093-.023a.17.17 0 0 1-.035-.105v-.917c0-.085.043-.128.128-.128zm-2.113.731h.662c.085 0 .128.043.128.128v.14c0 .085-.043.127-.128.127h-.662c-.093 0-.139-.042-.139-.127v-.14c0-.085.046-.128.14-.128z" style="line-height:21.76338387px;-inkscape-font-specification:'Rounded-X M+ 2c, Ultra-Bold';font-variant-ligatures:normal;font-variant-caps:normal;font-variant-numeric:normal;font-feature-settings:normal;text-align:start" font-weight="800" font-size="11.607" letter-spacing="-1.32" fill="#f1c749" stroke="#000" stroke-width="5.968" stroke-linejoin="round" stroke-opacity=".193" paint-order="stroke fill markers"/><path d="M16.59 3.047c-.191.007-.374.06-.548.16a1.42 1.42 0 0 0-.546.545 11.126 11.126 0 0 1-1.718 2.275.905.905 0 0 0-.278.662c0 .255.092.471.278.65l.255.232c.07.07.105.143.105.22v3.46c0 .363.004.641.012.835.007.193.039.383.093.568.062.186.123.314.185.383.07.07.198.136.383.198.186.07.372.112.557.127a36.528 36.528 0 0 0 2.809.116c.72 0 1.486-.018 2.299-.057 1.191-.047 1.973-.175 2.344-.384.372-.2.616-.673.732-1.416a.814.814 0 0 0-.175-.661.894.894 0 0 0-.615-.337.815.815 0 0 0-.638.186 1.509 1.509 0 0 0-.441.592.628.628 0 0 1-.442.383c-.2.047-.622.085-1.265.116-.774.039-1.365.058-1.775.058-.565 0-1.13-.02-1.695-.058-.286-.016-.46-.058-.523-.128-.054-.07-.08-.251-.08-.545v-1.23c0-.093.042-.14.127-.14h5.304c.031 0 .047.016.047.046 0 .093.031.175.093.244.062.062.14.093.232.093h.557c.24 0 .445-.085.615-.255a.834.834 0 0 0 .267-.627V6.781a.9.9 0 0 0-.29-.673.912.912 0 0 0-.685-.29h-1.59c-.023 0-.039-.008-.047-.023-.007-.023-.003-.043.012-.058l.244-.244c.302-.302.452-.689.452-1.16a.648.648 0 0 0-.196-.477.648.648 0 0 0-.476-.197h-3.007c-.038 0-.05-.02-.034-.058a.325.325 0 0 0-.036-.325.362.362 0 0 0-.278-.174l-.43-.046a1.19 1.19 0 0 0-.194-.008zm8.903.136a.773.773 0 0 0-.569.232.774.774 0 0 0-.232.57v.893c0 .085-.042.128-.127.128h-.337a.713.713 0 0 0-.522.22.713.713 0 0 0-.221.522c0 .201.074.376.22.523.148.147.321.22.523.22h.162c.078 0 .109.035.093.105a9.282 9.282 0 0 1-.813 2.367c-.286.58-.324 1.153-.115 1.718.062.163.19.252.383.267.2.016.336-.058.406-.22.124-.263.228-.534.313-.813.016-.008.027-.008.035 0v2.867c0 .224.078.414.232.57a.773.773 0 0 0 .569.231.774.774 0 0 0 .569-.232.774.774 0 0 0 .232-.569V9.045c0-.016.004-.023.012-.023.015 0 .027.004.034.011.016.031.035.078.058.14a.916.916 0 0 1 .047.127c.1.233.27.387.51.464.24.078.465.047.674-.093l.07-.034a.057.057 0 0 1 .069 0c.023.008.035.027.035.058v2.948c0 .24.085.445.255.615.17.178.38.267.627.267h.348a.488.488 0 0 0 .372-.162.486.486 0 0 0 .162-.371c0-.055.023-.082.07-.082h2.182c.047 0 .07.027.07.082 0 .147.05.27.15.37a.524.524 0 0 0 .383.163h.349c.247 0 .456-.089.626-.267a.838.838 0 0 0 .256-.615V6.352c0-.046.027-.07.08-.07a.545.545 0 0 0 .256-.062.713.713 0 0 0 .514.214h.186a.11.11 0 0 1 .081.034c.023.016.031.04.023.07a9.995 9.995 0 0 1-.835 2.39c-.287.573-.326 1.142-.117 1.707.062.163.19.252.384.267.193.008.325-.066.394-.22.031-.063.07-.159.117-.29a4.03 4.03 0 0 0 .08-.245c.008-.008.016-.01.024-.01.015 0 .023.007.023.022v2.646c0 .217.074.4.22.546a.722.722 0 0 0 .546.232.723.723 0 0 0 .546-.232.723.723 0 0 0 .232-.546V9.3c0-.015.003-.023.011-.023.016 0 .028.004.035.012.062.154.155.394.279.72a.647.647 0 0 1 .058.243v2.403c0 .232.081.43.244.592.162.162.36.243.592.243.232 0 .429-.08.591-.243a.789.789 0 0 0 .256-.592v-1.846c0-.023.012-.039.035-.046.023-.008.042-.004.058.011l.093.082a.289.289 0 0 1 .093.208v1.382c0 .178.061.329.185.452a.655.655 0 0 0 .464.186h.349c.077 0 .143-.03.197-.092a.266.266 0 0 0 .093-.21c0-.023.015-.034.046-.034h1.173c.054 0 .08.027.08.08a.662.662 0 0 0 .21.442c.124.124.27.19.441.197.178.008.379.012.603.012.317 0 .558-.016.72-.047a1.54 1.54 0 0 0 .441-.127.498.498 0 0 0 .279-.349c.054-.17.093-.367.116-.591.023-.225.034-.542.034-.952V9.207a.9.9 0 0 0-.29-.673.912.912 0 0 0-.684-.29h-1.614c0-.008.004-.015.012-.023.17-.039.286-.108.348-.209.062-.1.097-.255.104-.464 0-.031.012-.054.035-.07a.098.098 0 0 1 .093 0l.244.104c.255.124.526.159.812.105.294-.062.523-.205.685-.43.023-.038.058-.092.105-.162a.988.988 0 0 1 .093-.14c.208-.332.313-.707.313-1.125a.553.553 0 0 0-.186-.418.57.57 0 0 0-.417-.174h-.883c-.007 0-.015-.004-.023-.012-.015-.03-.012-.05.012-.058.131-.07.32-.174.569-.313.34-.194.51-.5.51-.917a.553.553 0 0 0-.185-.418.57.57 0 0 0-.418-.174h-5.456a.609.609 0 0 0-.43.174.57.57 0 0 0-.173.418c0 .162.057.301.174.417a.61.61 0 0 0 .429.175h.465c.015 0 .023.008.023.023 0 .008-.004.015-.012.023l-.023.012a.319.319 0 0 0-.163.313.329.329 0 0 0 .198.29c.008.008.011.02.011.035 0 .008-.008.012-.023.012h-1.219c-.023 0-.034-.012-.034-.035a.22.22 0 0 0-.082-.174.22.22 0 0 0-.174-.081H36.5c-.062 0-.093-.031-.093-.093V3.96a.723.723 0 0 0-.232-.546.723.723 0 0 0-.546-.232.722.722 0 0 0-.545.232.742.742 0 0 0-.22.546v.86c0 .084-.043.127-.128.127h-.233a.706.706 0 0 0-.327.08.52.52 0 0 0-.442-.231c-.054 0-.081-.023-.081-.07v-.604a.838.838 0 0 0-.256-.615.834.834 0 0 0-.626-.267.834.834 0 0 0-.627.267.838.838 0 0 0-.256.615v.546c0 .085-.042.128-.127.128h-2.066c-.085 0-.128-.043-.128-.128v-.546a.839.839 0 0 0-.255-.615.833.833 0 0 0-.627-.267.834.834 0 0 0-.627.267.838.838 0 0 0-.255.615v.627c0 .031-.016.047-.047.047-.1 0-.185.035-.255.104a.347.347 0 0 0-.104.256v.766c0 .1.035.185.104.255.07.07.155.104.255.104.031 0 .047.016.047.047v2.693c-.016.023-.031.03-.047.023-.278-.573-.688-1.401-1.23-2.484a.049.049 0 0 1 0-.046c.015-.016.03-.024.046-.024.17 0 .314-.058.43-.174a.584.584 0 0 0 .174-.43v-.139a.713.713 0 0 0-.22-.522.713.713 0 0 0-.523-.22h-.035c-.07 0-.104-.035-.104-.105v-.917a.774.774 0 0 0-.232-.569.774.774 0 0 0-.57-.232zm32.901.065a.847.847 0 0 0-.148.016c-1.06.217-2.085.364-3.076.441a.669.669 0 0 0-.476.244.649.649 0 0 0-.15.487.721.721 0 0 0 .255.488.764.764 0 0 0 .522.175c.147-.008.368-.028.662-.059a.08.08 0 0 1 .081.023.11.11 0 0 1 .047.093v1.045c0 .093-.043.14-.128.14h-.848a.713.713 0 0 0-.522.22.678.678 0 0 0-.22.51c0 .202.073.376.22.523.147.147.321.22.522.22h.593c.085 0 .112.043.08.128a8.99 8.99 0 0 1-1.148 2.275 1.353 1.353 0 0 0-.082 1.463.55.55 0 0 0 .476.278c.21 0 .368-.09.476-.267.201-.348.38-.731.534-1.149.008-.008.016-.012.023-.012.016 0 .024.008.024.023v2.194c0 .233.081.43.243.592.163.163.36.244.592.244a.768.768 0 0 0 .58-.244.806.806 0 0 0 .245-.592V9.602c0-.015.007-.023.022-.023.016-.008.028-.004.035.011.047.108.124.275.232.5.109.216.186.378.232.487.101.224.268.364.5.418.24.054.456.007.65-.14l.209-.162c.062-.046.093-.03.093.046v1.741c0 .24.08.441.243.604a.84.84 0 0 0 .616.255h.324a.487.487 0 0 0 .372-.162.487.487 0 0 0 .162-.372c0-.046.023-.07.07-.07h1.462c.047 0 .07.024.07.07 0 .147.05.271.151.372a.524.524 0 0 0 .383.162h.348a.82.82 0 0 0 .615-.267.822.822 0 0 0 .268-.615V4.704c0-.271-.097-.5-.29-.685a.918.918 0 0 0-.674-.279h-3.146a.949.949 0 0 0-.696.29.918.918 0 0 0-.278.674v5.536c-.016.031-.035.035-.059.012-.433-.712-.913-1.49-1.439-2.333a.058.058 0 0 1 0-.07c.015-.023.039-.035.07-.035h.336a.715.715 0 0 0 .523-.22.713.713 0 0 0 .22-.522.678.678 0 0 0-.22-.511.714.714 0 0 0-.523-.22h-.742a.144.144 0 0 1-.105-.047.155.155 0 0 1-.034-.093V4.936c0-.078.042-.124.127-.14.271-.053.553-.112.847-.173a.532.532 0 0 0 .395-.302.674.674 0 0 0 .035-.534.755.755 0 0 0-.372-.43.759.759 0 0 0-.409-.109zM6.687 3.26a.833.833 0 0 0-.143.016c-.929.2-1.869.344-2.82.43a.66.66 0 0 0-.465.243.649.649 0 0 0-.151.488.722.722 0 0 0 .256.487.75.75 0 0 0 .51.163c.04 0 .093-.004.163-.012.077-.008.135-.012.174-.012a.08.08 0 0 1 .081.024.11.11 0 0 1 .046.093v.777c0 .086-.042.128-.127.128H3.7a.734.734 0 0 0-.731.743.734.734 0 0 0 .73.742h.488c.03 0 .054.012.07.036a.08.08 0 0 1 .023.08A9.492 9.492 0 0 1 3.19 9.928c-.318.503-.345.986-.082 1.45a.456.456 0 0 0 .43.268c.2 0 .344-.086.429-.256.124-.24.236-.48.337-.72.008-.007.015-.011.023-.011s.011.008.011.023v2.078c0 .224.082.418.244.58a.793.793 0 0 0 .58.244.755.755 0 0 0 .57-.244.793.793 0 0 0 .243-.58v-2.82c0-.016.008-.024.023-.024.016-.008.027-.004.035.012l.128.29.14.279c.069.147.185.243.347.29.163.038.31.008.441-.093a.702.702 0 0 0 .28-.43.723.723 0 0 0-.082-.522c-.426-.75-.825-1.44-1.196-2.066a.057.057 0 0 1 0-.07.079.079 0 0 1 .07-.034h.894c.03 0 .054.011.07.035.015.023.019.05.011.08a.18.18 0 0 1-.023.07.177.177 0 0 0-.024.07.837.837 0 0 0 .44 1.033c.187.085.373.09.558.012a.663.663 0 0 0 .395-.407c.263-.735.492-1.582.685-2.542a.77.77 0 0 0-.116-.58.747.747 0 0 0-.476-.36.656.656 0 0 0-.557.093.68.68 0 0 0-.314.464 18.919 18.919 0 0 1-.487 1.87c-.008.007-.015.01-.023.01s-.011-.007-.011-.023V7.06c0-.27-.097-.5-.29-.685a.9.9 0 0 0-.674-.29h-.116c-.085 0-.128-.043-.128-.128V4.97c0-.085.039-.135.116-.15.495-.093.79-.151.882-.174a.636.636 0 0 0 .43-.325.645.645 0 0 0 .046-.534.71.71 0 0 0-.36-.418.748.748 0 0 0-.402-.109zm3.606.04a.852.852 0 0 0-.627.255.851.851 0 0 0-.255.626v1.544c0 1.377-.159 2.511-.476 3.401-.31.882-.8 1.629-1.474 2.24a1.203 1.203 0 0 0-.372.65.988.988 0 0 0 .116.72.808.808 0 0 0 .557.394.703.703 0 0 0 .64-.185c.773-.743 1.407-1.722 1.903-2.937.007-.015.023-.023.046-.023s.039.008.047.023c.464 1.215 1.052 2.19 1.764 2.925.177.17.387.232.626.186a.738.738 0 0 0 .546-.383.988.988 0 0 0 .116-.72 1.198 1.198 0 0 0-.371-.638c-.805-.735-1.347-1.69-1.626-2.867-.007-.023-.003-.043.012-.058a.077.077 0 0 1 .07-.012l.128.058c.24.116.48.128.72.035a.835.835 0 0 0 .498-.522c.256-.72.473-1.47.65-2.252a.727.727 0 0 0-.104-.604.827.827 0 0 0-.5-.383.73.73 0 0 0-.591.093.712.712 0 0 0-.348.488 21.03 21.03 0 0 1-.65 2.228c-.008.016-.016.02-.024.012-.023 0-.034-.012-.034-.035-.07-.55-.105-1.16-.105-1.834V4.181a.851.851 0 0 0-.255-.626.851.851 0 0 0-.627-.255zm35.728.15a.937.937 0 0 0-.685.29.93.93 0 0 0-.279.685v8.137c0 .248.09.46.267.638a.872.872 0 0 0 .639.267h.36a.524.524 0 0 0 .382-.162.487.487 0 0 0 .163-.372c0-.054.023-.081.07-.081h4.875c.046 0 .07.027.07.081 0 .147.053.271.162.372a.524.524 0 0 0 .383.162h.36c.248 0 .46-.089.638-.267a.87.87 0 0 0 .267-.638V4.425c0-.27-.097-.499-.29-.685a.9.9 0 0 0-.673-.29zm-6.132 1.08h1.52c.008 0 .02.004.035.011.016.031.012.05-.011.058-.14.078-.383.198-.731.36a.248.248 0 0 1-.221-.011 11.873 11.873 0 0 0-.325-.186l-.29-.163c-.016-.008-.02-.019-.012-.034.008-.023.02-.035.035-.035zm7.107.452h4.759c.085 0 .127.043.127.128v2.1c0 .086-.042.128-.127.128h-4.76c-.084 0-.127-.042-.127-.127V5.11c0-.085.043-.128.128-.128zm-30.084.024h2.1c.024 0 .04.011.047.034.008.023.005.043-.01.059-.156.139-.404.347-.744.626a.372.372 0 0 1-.232.093h-1.73c-.023 0-.042-.011-.058-.035a.058.058 0 0 1 0-.07c.201-.262.345-.46.43-.591.054-.078.12-.116.197-.116zm44.677.255h1.347c.085 0 .127.042.127.128v5.734c0 .085-.042.127-.127.127h-1.347c-.085 0-.128-.042-.128-.127V5.389c0-.086.043-.128.128-.128zM29.695 6.282h2.066c.085 0 .127.043.127.128v1.555c0 .093-.042.14-.127.14h-2.066c-.085 0-.128-.047-.128-.14V6.41c0-.085.043-.128.128-.128zm6.91.151h1.786c.016 0 .024.008.024.023.008.008.008.016 0 .024-.1.038-.367.131-.8.278a.524.524 0 0 0-.338.314.493.493 0 0 0 .035.452.82.82 0 0 0 .43.348.738.738 0 0 0 .545-.023c.047-.023.112-.058.197-.104l.21-.105c.03-.015.058-.015.081 0 .03.016.046.04.046.07l.035.406c.008.031 0 .062-.023.093a.126.126 0 0 1-.093.035h-1.253a.195.195 0 0 1-.187-.116 36.214 36.214 0 0 0-.394-.79l-.383-.8a.076.076 0 0 1 .012-.07.079.079 0 0 1 .07-.035zm5.594 0h.417c.031 0 .051.012.059.035a.058.058 0 0 1 0 .07 4.18 4.18 0 0 1-.51.568c-.016.016-.04.02-.07.012-.024-.015-.036-.035-.036-.058v-.499c0-.085.047-.127.14-.127zm-1.939.23a.073.073 0 0 1 .035.003c.024.008.035.026.035.057v.267c0 .124-.016.198-.046.22-.024.024-.117.035-.279.035h-.476c-.039-.015-.042-.038-.011-.069.263-.162.499-.329.708-.5a.086.086 0 0 1 .034-.014zm-24.23.548h1.706c.086 0 .128.042.128.128v1.09c0 .086-.042.128-.128.128H16.03c-.085 0-.128-.042-.128-.127V7.339c0-.086.043-.128.128-.128zm3.68 0h1.543c.085 0 .128.042.128.128v1.09c0 .086-.043.128-.128.128H19.71c-.086 0-.128-.042-.128-.127V7.339c0-.086.042-.128.128-.128zm27.286 1.613h4.759c.085 0 .127.043.127.128v2.298c0 .085-.042.128-.127.128h-4.76c-.084 0-.127-.043-.127-.128V8.952c0-.085.043-.128.128-.128zm-8.395.58h.278c.039 0 .066.016.081.047.024.031.031.062.024.093-.047.147-.182.31-.406.488a.077.077 0 0 1-.07.011c-.023-.008-.035-.027-.035-.058v-.453c0-.085.043-.127.128-.127zm1.822 0h.011c.086 0 .128.043.128.128v.465c0 .309.058.534.174.673.039.054.028.081-.034.081h-.906c-.023 0-.039-.011-.046-.035-.008-.023-.004-.042.012-.058.325-.34.498-.712.522-1.114 0-.031.011-.062.035-.093a.144.144 0 0 1 .104-.046zm1.567 0h.325c.085 0 .128.043.128.128v.198c0 .085-.043.127-.128.127h-.14c-.162 0-.258-.012-.29-.035-.023-.023-.034-.1-.034-.232v-.058c0-.085.046-.127.14-.127zm-12.295.128h2.066c.085 0 .127.043.127.128v1.648c0 .085-.042.128-.127.128h-2.066c-.085 0-.128-.043-.128-.128V9.66c0-.085.043-.128.128-.128zm12.597 1.347h.023c.085 0 .128.042.128.127v.697c0 .147-.008.24-.023.279-.016.038-.058.062-.128.07-.031.007-.062 0-.093-.024a.17.17 0 0 1-.035-.104v-.918c0-.085.043-.127.128-.127zm-2.113.731h.662c.085 0 .127.043.127.128v.14c0 .084-.042.127-.127.127h-.662c-.093 0-.139-.043-.139-.128v-.14c0-.084.046-.127.14-.127z" style="line-height:21.76338387px;-inkscape-font-specification:'Rounded-X M+ 2c, Normal';font-variant-ligatures:normal;font-variant-caps:normal;font-variant-numeric:normal;font-feature-settings:normal;text-align:start" font-weight="400" letter-spacing="-.126" fill="#f1c748" stroke="#4a2e10" stroke-width="4.767" stroke-linejoin="round" paint-order="stroke fill markers"/><path d="M16.59 3.047c-.191.007-.375.06-.549.16a1.42 1.42 0 0 0-.545.545 11.126 11.126 0 0 1-1.718 2.275.904.904 0 0 0-.278.661c0 .256.092.473.278.65l.255.233a.31.31 0 0 1 .105.22v3.46c0 .363.004.641.012.834.007.194.038.384.092.57.062.185.124.313.186.382.07.07.198.136.383.198.186.07.372.112.557.128a36.528 36.528 0 0 0 2.809.116c.72 0 1.486-.02 2.299-.059 1.191-.046 1.972-.174 2.344-.383.371-.2.615-.673.731-1.416a.814.814 0 0 0-.174-.661.894.894 0 0 0-.615-.337.814.814 0 0 0-.638.186 1.508 1.508 0 0 0-.442.592.628.628 0 0 1-.44.383c-.202.046-.623.085-1.266.116-.774.039-1.365.058-1.775.058-.565 0-1.13-.02-1.695-.058-.286-.016-.46-.058-.523-.128-.054-.07-.08-.251-.08-.545v-1.23c0-.093.042-.14.127-.14h5.304c.031 0 .047.016.047.046 0 .093.03.175.093.244.061.062.139.093.232.093h.557a.84.84 0 0 0 .615-.255.832.832 0 0 0 .267-.627V6.781a.9.9 0 0 0-.29-.673.912.912 0 0 0-.685-.29h-1.59c-.023 0-.039-.008-.047-.023-.007-.023-.004-.043.012-.059l.244-.243c.302-.302.452-.689.452-1.16a.649.649 0 0 0-.197-.477.649.649 0 0 0-.476-.197h-3.006c-.038 0-.05-.02-.035-.058a.326.326 0 0 0-.035-.325.362.362 0 0 0-.278-.174l-.43-.046a1.19 1.19 0 0 0-.194-.008zm-9.904.213a.78.78 0 0 0-.142.016c-.929.201-1.87.344-2.821.43a.658.658 0 0 0-.464.243.649.649 0 0 0-.151.488.72.72 0 0 0 .255.487.75.75 0 0 0 .51.163c.04 0 .094-.004.164-.012a1.81 1.81 0 0 1 .174-.012.08.08 0 0 1 .081.024.11.11 0 0 1 .046.092v.778c0 .085-.042.128-.127.128H3.7a.734.734 0 0 0-.73.743.733.733 0 0 0 .73.743h.488c.03 0 .053.01.069.034.023.023.03.05.023.082a9.489 9.489 0 0 1-1.09 2.24c-.318.503-.345.987-.082 1.45a.455.455 0 0 0 .43.268c.2 0 .344-.085.429-.256.124-.24.236-.48.336-.72.008-.008.016-.011.024-.011.007 0 .011.008.011.023v2.078c0 .224.081.418.244.58a.792.792 0 0 0 .58.244c.225 0 .415-.081.57-.244a.792.792 0 0 0 .243-.58v-2.82c0-.016.008-.024.023-.024.015-.008.027-.004.035.012l.128.29.139.278c.07.147.186.244.348.29a.5.5 0 0 0 .441-.092.703.703 0 0 0 .28-.43.722.722 0 0 0-.083-.522c-.425-.75-.824-1.44-1.195-2.066a.058.058 0 0 1 0-.07c.015-.023.039-.034.07-.034h.893c.031 0 .055.011.07.034.016.023.02.05.011.082a.178.178 0 0 1-.023.07.176.176 0 0 0-.023.069.838.838 0 0 0 .44 1.033.668.668 0 0 0 .558.011.662.662 0 0 0 .395-.406c.263-.735.492-1.582.685-2.541a.77.77 0 0 0-.116-.58.749.749 0 0 0-.476-.361.656.656 0 0 0-.557.093.68.68 0 0 0-.314.465 18.91 18.91 0 0 1-.487 1.868c-.008.008-.015.012-.023.012s-.012-.008-.012-.024V7.06c0-.27-.096-.499-.29-.685a.9.9 0 0 0-.673-.29h-.117c-.085 0-.127-.043-.127-.128v-.986c0-.086.039-.136.116-.151.495-.093.79-.151.882-.175a.636.636 0 0 0 .43-.325.645.645 0 0 0 .046-.533.71.71 0 0 0-.36-.418.749.749 0 0 0-.403-.11zm3.607.04a.852.852 0 0 0-.627.254.852.852 0 0 0-.255.627v1.544c0 1.377-.16 2.511-.476 3.401-.31.882-.801 1.629-1.474 2.24a1.203 1.203 0 0 0-.372.65.987.987 0 0 0 .116.72.809.809 0 0 0 .557.394.702.702 0 0 0 .639-.185c.773-.743 1.408-1.722 1.904-2.937.007-.016.022-.023.046-.023.023 0 .038.007.046.023.464 1.215 1.053 2.19 1.765 2.925.177.17.387.232.626.186a.737.737 0 0 0 .546-.383.987.987 0 0 0 .116-.72 1.199 1.199 0 0 0-.372-.638c-.804-.735-1.346-1.691-1.625-2.867-.007-.024-.004-.043.012-.058a.077.077 0 0 1 .07-.012l.127.058c.24.116.48.128.72.035a.835.835 0 0 0 .499-.523c.255-.72.472-1.47.65-2.251a.725.725 0 0 0-.104-.604.829.829 0 0 0-.5-.383.729.729 0 0 0-.591.093.711.711 0 0 0-.349.487 21.04 21.04 0 0 1-.65 2.23c-.008.015-.015.018-.023.01-.023 0-.035-.01-.035-.034-.07-.55-.104-1.16-.104-1.834V4.181a.852.852 0 0 0-.255-.627.852.852 0 0 0-.627-.255zm6.62 1.706h2.1c.023 0 .039.011.046.034.008.023.004.043-.011.058-.155.14-.403.348-.743.627a.372.372 0 0 1-.232.093h-1.73c-.023 0-.042-.012-.058-.035a.058.058 0 0 1 0-.07c.201-.262.345-.46.43-.592.054-.077.12-.115.197-.115zM16.03 7.21h1.706c.085 0 .128.042.128.128v1.09c0 .086-.043.128-.128.128H16.03c-.085 0-.128-.042-.128-.127V7.339c0-.086.043-.128.128-.128zm3.68 0h1.543c.085 0 .128.042.128.128v1.09c0 .086-.043.128-.128.128h-1.544c-.085 0-.128-.042-.128-.127V7.339c0-.086.043-.128.128-.128z" style="line-height:21.76338387px;-inkscape-font-specification:'Rounded-X M+ 2c, Normal';font-variant-ligatures:normal;font-variant-caps:normal;font-variant-numeric:normal;font-feature-settings:normal;text-align:start" font-weight="400" letter-spacing="-.126" fill="#e7912a" paint-order="stroke fill markers"/></g></svg>